<svg xmlns="http://www.w3.org/2000/svg" viewBox="0 0 64 64">
  <defs>
    <linearGradient id="g" x1="0" y1="0" x2="1" y2="1">
      <stop offset="0" stop-color="#FF9DB6"/>
      <stop offset="1" stop-color="#E8505B"/>
    </linearGradient>
  </defs>
  <rect width="64" height="64" rx="15" fill="url(#g)"/>
  <path transform="translate(11 11.2) scale(1.75)" fill="#FFFFFF" d="M12 21s-7.5-4.6-9.6-9.3C.9 8.3 3 4.5 6.7 4.5c2.1 0 3.5 1.1 4.3 2.4h2c.8-1.3 2.2-2.4 4.3-2.4 3.7 0 5.8 3.8 4.3 7.2C19.5 16.4 12 21 12 21z"/>
  <path transform="translate(43 8) scale(.55)" fill="#FFFFFF" fill-opacity=".75" d="M12 21s-7.5-4.6-9.6-9.3C.9 8.3 3 4.5 6.7 4.5c2.1 0 3.5 1.1 4.3 2.4h2c.8-1.3 2.2-2.4 4.3-2.4 3.7 0 5.8 3.8 4.3 7.2C19.5 16.4 12 21 12 21z"/>
</svg>
