<svg xmlns="http://www.w3.org/2000/svg" viewBox="0 0 64 64">
  <defs>
    <linearGradient id="logoSkin" x1="10" y1="6" x2="54" y2="62" gradientUnits="userSpaceOnUse">
      <stop offset="0" stop-color="#8bb454"/>
      <stop offset="1" stop-color="#2b4424"/>
    </linearGradient>
    <linearGradient id="logoStripe" x1="8" y1="0" x2="56" y2="0" gradientUnits="userSpaceOnUse">
      <stop offset="0" stop-color="#f0ddab"/>
      <stop offset="1" stop-color="#c5963a"/>
    </linearGradient>
    <linearGradient id="logoWing" x1="0" y1="0" x2="1" y2="1">
      <stop offset="0" stop-color="#ffffff" stop-opacity="0.95"/>
      <stop offset="1" stop-color="#e3edd1" stop-opacity="0.55"/>
    </linearGradient>
    <radialGradient id="logoPit" cx="40%" cy="35%" r="65%">
      <stop offset="0" stop-color="#f0ddab"/>
      <stop offset="1" stop-color="#7e3e22"/>
    </radialGradient>
    <clipPath id="logoClip">
      <path d="M32 7 C23 7 16 16 14 28 C12 40 17 53 24 60 C28 63.5 36 63.5 40 60 C47 53 52 40 50 28 C48 16 41 7 32 7 Z"/>
    </clipPath>
  </defs>
  <g opacity="0.9">
    <ellipse cx="17" cy="17" rx="12" ry="7.5" transform="rotate(-25 17 17)" fill="url(#logoWing)" stroke="#c9dca8" stroke-width="1"/>
    <ellipse cx="47" cy="17" rx="12" ry="7.5" transform="rotate(25 47 17)" fill="url(#logoWing)" stroke="#c9dca8" stroke-width="1"/>
  </g>
  <g stroke="#46291b" stroke-width="2.2" stroke-linecap="round" fill="none">
    <path d="M28 9 C25 4 21 2 18 2.5"/>
    <path d="M36 9 C39 4 43 2 46 2.5"/>
  </g>
  <circle cx="18" cy="2.5" r="1.8" fill="#46291b"/>
  <circle cx="46" cy="2.5" r="1.8" fill="#46291b"/>
  <path d="M32 7 C23 7 16 16 14 28 C12 40 17 53 24 60 C28 63.5 36 63.5 40 60 C47 53 52 40 50 28 C48 16 41 7 32 7 Z" fill="url(#logoSkin)"/>
  <g fill="#1c2e16" opacity="0.15">
    <ellipse cx="20" cy="22" rx="1.6" ry="2.2"/>
    <ellipse cx="45" cy="24" rx="1.8" ry="2.4"/>
  </g>
  <g clip-path="url(#logoClip)">
    <rect x="8" y="25" width="48" height="7" fill="url(#logoStripe)"/>
    <rect x="8" y="41" width="48" height="7" fill="url(#logoStripe)"/>
  </g>
  <g fill="#23271a">
    <ellipse cx="27" cy="16" rx="1.7" ry="2.1"/>
    <ellipse cx="37" cy="16" rx="1.7" ry="2.1"/>
  </g>
  <g fill="#ffffff" opacity="0.7">
    <circle cx="26.4" cy="15.2" r="0.6"/>
    <circle cx="36.4" cy="15.2" r="0.6"/>
  </g>
  <circle cx="32" cy="51" r="8" fill="url(#logoPit)"/>
  <ellipse cx="29" cy="48" rx="2.2" ry="2.8" fill="#ffffff" opacity="0.25"/>
  <g fill="#c5963a">
    <circle cx="9" cy="56" r="1.4" opacity="0.55"/>
    <circle cx="5" cy="50" r="1.1" opacity="0.4"/>
    <circle cx="3" cy="44" r="0.8" opacity="0.25"/>
  </g>
</svg>
