<svg xmlns="http://www.w3.org/2000/svg" viewBox="0 0 64 64">
  <defs>
    <linearGradient id="bg" x1="0" y1="0" x2="1" y2="1">
      <stop offset="0" stop-color="#7fa650"/>
      <stop offset="1" stop-color="#2d5016"/>
    </linearGradient>
    <linearGradient id="fruit" x1="0" y1="0" x2="0" y2="1">
      <stop offset="0" stop-color="#ff9966"/>
      <stop offset="1" stop-color="#ff6b35"/>
    </linearGradient>
  </defs>
  <rect width="64" height="64" rx="16" fill="url(#bg)"/>
  <path d="M32 46c-9 0-15-8-15-17 0-6 3-10 8-10 2.4 0 4 1 6 1s3.6-1 6-1c3.6 0 6.2 2 7.4 5-4.2 1.6-6.4 5.4-6.4 9.6 0 5.6 4 9 4 9-2.4 2.6-6 3.4-10 3.4z" fill="url(#fruit)"/>
  <path d="M31 19c0-3 1.6-5.4 4.4-6.6-.2 3-2 5.4-4.4 6.6z" fill="#fef8f0"/>
  <ellipse cx="27" cy="28" rx="3" ry="4.5" fill="#fff" opacity=".28"/>
</svg>
