<svg xmlns="http://www.w3.org/2000/svg" viewBox="0 0 200 200">
  <rect width="200" height="200" fill="#fbf8f0"/>
  <circle cx="100" cy="100" r="94" fill="#fbf8f0" stroke="#2d5016" stroke-width="6"/>
  <g opacity="0.9">
    <ellipse cx="58" cy="48" rx="24" ry="34" fill="#ffffff" stroke="#cfe0c0" stroke-width="1.5" transform="rotate(-25 58 48)"/>
    <ellipse cx="142" cy="48" rx="24" ry="34" fill="#ffffff" stroke="#cfe0c0" stroke-width="1.5" transform="rotate(25 142 48)"/>
  </g>
  <path d="M118,26 C124,16 132,12 138,14 C136,22 128,28 118,30 Z" fill="#4a7c2a"/>
  <path d="M120,28 L134,16" stroke="#2d5016" stroke-width="1" fill="none"/>
  <path d="M90,31 Q82,22 78,16" stroke="#1a1a1a" stroke-width="3" fill="none" stroke-linecap="round"/>
  <path d="M110,31 Q118,22 122,16" stroke="#1a1a1a" stroke-width="3" fill="none" stroke-linecap="round"/>
  <circle cx="78" cy="16" r="3.5" fill="#1a1a1a"/>
  <circle cx="122" cy="16" r="3.5" fill="#1a1a1a"/>
  <path d="M100,30 C86,30 73,41 73,57 C73,71 64,78 62,91 C60,105 75,114 100,114 C125,114 140,105 138,91 C136,78 127,71 127,57 C127,41 114,30 100,30 Z" fill="#5a8f3c" stroke="#2d5016" stroke-width="2"/>
  <defs>
    <clipPath id="fleshClip">
      <path d="M100,37 C89,37 80,46 80,59 C80,71 71,77 69,89 C67,101 80,108 100,108 C120,108 133,101 131,89 C129,77 120,71 120,59 C120,46 111,37 100,37 Z"/>
    </clipPath>
  </defs>
  <path d="M100,37 C89,37 80,46 80,59 C80,71 71,77 69,89 C67,101 80,108 100,108 C120,108 133,101 131,89 C129,77 120,71 120,59 C120,46 111,37 100,37 Z" fill="#dfe9a6"/>
  <g clip-path="url(#fleshClip)">
    <rect x="60" y="90" width="80" height="5" fill="#1f1f1f"/>
    <rect x="58" y="98" width="84" height="5" fill="#1f1f1f"/>
    <rect x="60" y="105" width="80" height="5" fill="#1f1f1f"/>
  </g>
  <circle cx="100" cy="74" r="16" fill="#6b4226"/>
  <ellipse cx="94" cy="67" rx="5.5" ry="7" fill="#8a5a35" opacity="0.6"/>
  <circle cx="90" cy="52" r="3.2" fill="#1a1a1a"/>
  <circle cx="110" cy="52" r="3.2" fill="#1a1a1a"/>
  <path d="M91,59 Q100,64 109,59" stroke="#1a1a1a" stroke-width="2" fill="none" stroke-linecap="round"/>
  <ellipse cx="78" cy="57" rx="5" ry="3.4" fill="#ff9b9b" opacity="0.5"/>
  <ellipse cx="122" cy="57" rx="5" ry="3.4" fill="#ff9b9b" opacity="0.5"/>
  <path d="M52,114 C46,108 38,108 34,112 C40,116 46,118 52,114 Z" fill="#5a8f3c"/>
  <path d="M148,114 C154,108 162,108 166,112 C160,116 154,118 148,114 Z" fill="#5a8f3c"/>
</svg>
